<svg xmlns="http://www.w3.org/2000/svg" width="60.214" height="60.994" viewBox="0 0 60.214 60.994">
    <g>
        <path fill="rgba(255,255,255,0)" d="M0 0H58V59H0z" transform="translate(-.465 .267) translate(.465 -.267)"/>
        <g>
            <path fill="#3d55dc" d="M0 0H46V6H0z" transform="translate(-.465 .267) translate(.679 .721) translate(12.805 20.138)"/>
            <path fill="#262626" d="M60.024 40.773a5.794 5.794 0 0 0-9.96-4.025l-7.434 7.691h-4.97V28.887a6.361 6.361 0 0 0 2.534-1.506c.038-.036.073-.074.11-.111a6.191 6.191 0 0 0 8.891.041l.034.036a6.048 6.048 0 0 0 4.356 1.826 6.31 6.31 0 0 0 6.3-6.287A22.849 22.849 0 0 0 37.034 0H33.69a22.9 22.9 0 0 0-21.8 22.849s-.018.623.013.878A6.211 6.211 0 0 0 22.514 27.3a6.123 6.123 0 0 0 4.408 1.874 6.268 6.268 0 0 0 4.469-1.865l.036.039a6.036 6.036 0 0 0 2.716 1.6v15.491H7.108a7.077 7.077 0 0 0-7.084 6.976v3.63h6.348v4.96h3.516v-4.96h24.256v4.96h3.516v-4.96h7.122v4.96H48.3v-6.011l11.724-12.217v-1zM47.448 22.984a2.682 2.682 0 0 1-5.365.016v-2.554h5.4l-.024 2.52v.017h-.013zm6.136 2.673a2.612 2.612 0 0 1-2.607-2.665L51 20.446h5.219a19.65 19.65 0 0 1 .147 2.432 2.789 2.789 0 0 1-2.782 2.779zM50.716 9.189a19.244 19.244 0 0 1 4.733 7.741h-4.417a16.891 16.891 0 0 0-3.71-10.459 19.492 19.492 0 0 1 3.394 2.718zm-3.2 7.741h-5.433V13.6a20.387 20.387 0 0 0-1.814-8.477A13.663 13.663 0 0 1 43.6 7.584a13.382 13.382 0 0 1 3.916 9.347zM31.523 5.117a20.152 20.152 0 0 0-1.861 8.483v3.326h-5.379a13.337 13.337 0 0 1 7.24-11.809zm1.654 8.483A16.645 16.645 0 0 1 35.9 4.458a16.67 16.67 0 0 1 2.667 9.142v3.326h-5.39zm-8.763-7.088a16.811 16.811 0 0 0-3.647 10.418h-4.432a19.424 19.424 0 0 1 8.079-10.418zm-6.353 19.145a2.679 2.679 0 0 1-2.661-2.324v-.1c0-.083.006-.166.006-.249v-.135a19.453 19.453 0 0 1 .149-2.4h5.209v2.537a2.691 2.691 0 0 1-2.703 2.671zm8.861 0a2.66 2.66 0 0 1-2.642-2.673v-2.538h5.381v2.537a2.743 2.743 0 0 1-2.739 2.673zM33.177 23v-2.554h5.39v2.537a2.767 2.767 0 0 1-2.784 2.673A2.611 2.611 0 0 1 33.177 23zM3.647 51.415a3.464 3.464 0 0 1 3.461-3.46h35.127l1.6 3.574H3.647zm43.433-1.231l-1.616-3.62 7.127-7.374a2.282 2.282 0 0 1 3.888 1.2z" transform="translate(-.465 .267) translate(.679 .721) translate(-.024)"/>
        </g>
    </g>
</svg>
