<svg xmlns="http://www.w3.org/2000/svg" width="64" height="65.715" viewBox="0 0 64 65.715">
    <defs>
        <style>
            .cls-3{fill:#333}
        </style>
    </defs>
    <g id="camp_icon" transform="translate(3.035 -.233)">
        <path id="사각형_310" fill="rgba(255,255,255,0)" d="M0 0H58V58H0z" transform="translate(-.035 .233)"/>
        <g id="그룹_111" transform="translate(-3.035 1.948)">
            <path id="패스_133" fill="#3d55dc" d="M20.937 18.376L8.5 39.237h24.78z" transform="translate(11.737 22.409)"/>
            <path id="패스_129" d="M60.69 143.993l-3.629-.975-1.355 5.392-21.537-38.305 3.2-5.7-3.242-1.949L32 106.248l-2.129-3.787-3.242 1.949 3.2 5.7-21.535 38.301-1.354-5.393-3.629.975L5.2 151.52H0v3.88h64v-3.88h-5.2zm-30.565 7.527H22.1l8.023-14.558zm3.75 0v-14.558L41.9 151.52zm12.34 0L32 125.728 17.785 151.52h-6.9L32 113.963l21.116 37.557z" class="cls-3" transform="translate(0 -91.398)"/>
            <path id="패스_130" d="M298.928 11.611a7.4 7.4 0 1 0-12.5-7.907h-9.076v3.239h9.346a2.334 2.334 0 1 1 0 4.668h-3.441v3.239h19.431v-3.239zm-7.175 0a5.566 5.566 0 0 0-2.008-6.995 4.172 4.172 0 1 1 3.086 6.995z" class="cls-3" transform="translate(-238.685)"/>
            <path id="패스_131" d="M0 34.3h14.458v3.24H0z" class="cls-3" transform="translate(0 -30.597)"/>
            <path id="패스_132" d="M101.948 94h7.229v3.239h-7.229z" class="cls-3" transform="translate(-88.943 -82.15)"/>
        </g>
    </g>
</svg>
