<svg xmlns="http://www.w3.org/2000/svg" width="64" height="65.103" viewBox="0 0 64 65.103">
    <defs>
        <style>
            .cls-2{fill:#333}.cls-3{fill:#3d55dc}
        </style>
    </defs>
    <g id="triphotel_icon" transform="translate(.035 .267)">
        <path id="사각형_310" fill="rgba(255,255,255,0)" d="M0 0H64V65.103H0z" transform="translate(-.035 -.267)"/>
        <g id="그룹_105" transform="translate(11.002 .028)">
            <path id="패스_120" d="M316.235 120.471h5.619v3.746h-5.619z" class="cls-2" transform="translate(-285.993 -105.488)"/>
            <path id="패스_121" d="M225.882 120.471h7.367v3.746h-7.367z" class="cls-2" transform="translate(-206.877 -105.488)"/>
            <path id="패스_122" d="M150.588 120.471h5.619v3.746h-5.619z" class="cls-2" transform="translate(-140.948 -105.488)"/>
            <path id="패스_123" d="M193.858 212.334l-1.185 3.554 3.085 1.028 1.028 3.084 3.553-1.184-.958-2.875 3.66-3.66 1.69 5.071 3.554-1.185-2.285-6.848 3.154-3.154-2.649-2.649-3.154 3.154-6.848-2.283-1.184 3.554 5.071 1.69-3.66 3.66z" class="cls-3" transform="translate(-177.799 -178.205)"/>
            <path id="패스_124" d="M123.546 0l-.582 1.016c-1.6 2.8-5.4 4.6-9.684 4.6s-8.083-1.807-9.684-4.6L103.014 0H90.353v63.676H103.1l.594-.969c1.654-2.7 5.418-4.441 9.589-4.441s7.935 1.743 9.589 4.441l.594.969h12.744V0zm8.492 59.931h-6.193c-2.6-3.319-7.386-5.41-12.566-5.41s-9.966 2.092-12.566 5.41h-6.191V3.746h6.033c2.559 3.447 7.4 5.618 12.725 5.618s10.167-2.172 12.725-5.618h6.033z" class="cls-2" transform="translate(-90.353)"/>
            <path id="패스_125" d="M180.706 376.471h18.728v3.746h-18.728z" class="cls-3" transform="translate(-167.32 -329.65)"/>
        </g>
    </g>
</svg>
